<svg class="img-fluid" id="outputsvg" xmlns="http://www.w3.org/2000/svg" style="transform: none; transform-origin: 50% 50%; cursor: move;" width="1200" height="1200" viewBox="0 0 12000 12000">
<g id="l1rE0XXYBQ591iKY0lB1Hsh" style="transform: none;">
<g>
<path id="phkdMRk9N" d="M4580 10230 l-135 -5 -3 -48 c-3 -41 5 -63 58 -170 63 -124 99 -188 111 -197 7 -5 59 -106 59 -114 0 -2 -15 -8 -32 -11 -18 -4 -36 -13 -40 -19 -20 -30 7 -181 40 -225 18 -24 18 -32 5 -116 -7 -49 -13 -151 -14 -225 0 -74 -1 -160 -1 -190 -3 -124 -2 -258 1 -305 2 -27 0 -93 -4 -145 l-8 -96 -63 -36 -64 -37 -5 27 c-18 86 -19 87 -57 90 -20 2 -44 12 -53 23 -20 21 -105 28 -105 9 0 -7 -6 -7 -19 0 -22 11 -61 13 -85 4 -18 -7 -21 -49 -6 -88 7 -21 6 -26 -5 -26 -21 0 -21 -83 0 -100 8 -7 15 -26 15 -42 0 -25 6 -32 40 -45 22 -9 39 -20 38 -24 -2 -4 -46 -52 -99 -106 l-95 -98 -16 37 c-15 34 -20 38 -52 38 -20 0 -36 4 -36 8 0 15 -49 32 -90 32 -28 0 -40 -4 -40 -14 0 -10 -14 -13 -52 -12 l-53 1 -3 -37 c-2 -20 2 -46 7 -57 7 -13 8 -22 1 -26 -15 -9 -12 -67 4 -91 8 -11 16 -33 18 -49 3 -27 8 -30 68 -44 l65 -14 -73 -111 c-41 -61 -78 -121 -83 -133 -11 -31 -23 -29 -49 6 -20 30 -21 30 -118 28 l-97 -2 -3 -27 c-3 -24 -8 -27 -50 -30 l-47 -3 -3 -41 c-2 -27 2 -45 13 -54 9 -8 15 -29 15 -57 0 -41 3 -46 30 -56 21 -8 30 -18 30 -34 0 -22 4 -23 68 -23 l69 0 -45 -132 c-24 -73 -45 -135 -47 -136 -2 -2 -21 8 -42 22 -42 29 -100 35 -109 11 -4 -11 -21 -15 -55 -15 l-49 0 0 -34 c0 -33 -2 -34 -48 -42 -46 -9 -47 -10 -50 -49 -3 -38 0 -42 33 -58 30 -14 35 -22 35 -51 0 -32 2 -35 40 -41 30 -5 40 -11 40 -26 0 -15 7 -19 39 -19 22 0 52 5 67 10 15 6 29 9 31 6 6 -6 -19 -283 -27 -296 -5 -8 -15 -8 -34 0 -15 5 -48 10 -73 10 -36 0 -46 -4 -50 -20 -3 -13 -14 -20 -29 -20 -12 0 -34 -4 -48 -10 -21 -8 -26 -16 -26 -44 0 -28 -5 -37 -27 -48 -23 -11 -29 -21 -31 -55 -3 -45 -2 -45 63 -55 14 -2 21 -12 23 -36 3 -30 6 -32 42 -32 30 0 40 -5 45 -20 9 -28 56 -26 111 6 l44 26 0 -49 c0 -26 7 -91 15 -143 8 -52 15 -100 15 -107 0 -9 -19 -10 -70 -6 l-70 6 0 -32 c0 -21 -5 -31 -15 -31 -9 0 -29 -7 -45 -15 -26 -14 -30 -21 -30 -58 0 -31 -5 -45 -20 -55 -15 -9 -20 -23 -20 -52 l0 -40 55 0 c54 0 55 0 55 -29 0 -34 6 -36 98 -46 64 -7 64 -7 101 29 l37 36 18 -52 c10 -29 37 -93 59 -141 46 -101 44 -107 -35 -107 l-48 0 0 -35 c0 -22 -5 -35 -13 -35 -8 0 -24 -11 -36 -24 -17 -18 -22 -35 -22 -72 0 -27 -2 -73 -5 -103 l-6 -54 60 5 c53 4 61 2 66 -15 4 -17 11 -18 48 -13 24 4 62 9 85 12 38 5 44 10 63 50 20 40 40 58 40 35 0 -5 45 -66 100 -135 55 -69 100 -128 100 -131 0 -3 -7 -5 -15 -5 -8 0 -30 -8 -50 -17 -30 -14 -35 -22 -35 -51 0 -21 -7 -40 -16 -47 -23 -16 -33 -115 -11 -115 12 0 14 -11 9 -66 l-5 -66 49 6 c27 4 72 6 99 6 40 0 55 5 77 25 15 14 37 25 48 25 22 0 50 50 50 90 0 11 2 20 5 20 2 0 39 -28 82 -63 43 -34 100 -78 126 -97 l48 -34 -36 -31 c-31 -25 -37 -36 -35 -65 2 -19 -3 -48 -9 -64 -7 -17 -11 -46 -9 -65 2 -28 8 -37 25 -39 19 -3 22 -10 25 -55 l3 -52 42 -3 c33 -2 44 1 52 17 9 15 23 21 64 23 45 3 52 6 55 26 3 16 10 22 28 22 26 0 32 14 36 93 l3 47 49 -26 c27 -14 72 -34 101 -44 28 -10 66 -25 84 -34 l32 -17 -31 -38 c-22 -29 -30 -49 -30 -80 0 -23 4 -41 10 -41 5 0 10 -28 12 -63 3 -62 3 -62 36 -65 25 -3 32 -8 32 -25 0 -54 11 -67 50 -67 33 0 41 5 60 35 19 30 27 35 61 35 38 0 39 1 45 40 5 31 11 40 27 40 18 0 19 5 15 75 -5 68 -3 75 12 70 18 -6 161 -33 220 -41 85 -13 79 -6 63 -76 -16 -67 -12 -173 6 -191 6 -6 11 -21 11 -33 0 -12 7 -24 15 -28 8 -3 15 -14 15 -25 0 -13 8 -21 22 -23 14 -2 24 -12 28 -28 5 -21 12 -25 48 -28 37 -3 43 0 54 22 7 17 19 26 35 26 18 0 23 6 23 24 0 15 7 26 20 29 11 3 20 14 20 25 0 10 9 31 20 45 19 24 20 35 14 125 l-7 99 134 6 c74 4 152 10 173 14 36 6 39 5 32 -13 -5 -10 -11 -49 -13 -86 -5 -64 -5 -68 16 -68 16 0 21 -6 21 -24 0 -44 10 -56 46 -56 29 0 36 -5 54 -40 18 -35 25 -40 55 -40 30 0 35 4 35 23 1 31 34 67 63 67 29 0 37 16 37 75 0 29 5 45 15 49 21 7 20 79 -1 97 -8 7 -22 25 -29 40 l-15 27 53 12 c28 7 96 27 149 46 l98 32 -3 -76 c-2 -73 -1 -77 21 -80 15 -2 27 -15 37 -39 14 -33 17 -35 54 -31 35 3 41 0 56 -25 15 -25 22 -28 58 -25 42 3 42 3 47 48 4 39 8 45 31 48 26 3 26 4 32 109 l7 105 -42 38 -42 37 65 37 c35 20 97 57 138 82 40 24 75 43 77 42 1 -2 6 -30 11 -63 7 -55 10 -60 35 -63 18 -2 30 -12 38 -33 11 -26 17 -29 56 -29 27 0 44 5 44 12 0 6 13 0 28 -15 20 -19 39 -27 65 -27 l37 0 0 59 c0 50 3 59 20 64 16 4 20 14 20 49 0 24 -6 53 -14 64 -8 11 -16 38 -18 60 -3 35 -8 42 -50 64 l-47 26 124 124 123 123 15 -35 c8 -19 18 -44 21 -56 6 -17 15 -22 40 -22 19 0 39 -7 46 -15 18 -22 100 -21 100 1 0 12 5 15 23 9 12 -4 41 -10 65 -12 l42 -5 0 47 c0 25 -5 55 -10 66 -8 15 -7 19 5 19 26 0 19 73 -10 108 -15 18 -25 42 -25 60 0 28 -4 32 -37 38 -21 3 -52 9 -69 13 l-32 6 86 142 85 141 34 -44 34 -44 89 0 c89 0 90 0 90 25 0 24 1 25 60 18 l60 -6 0 45 c0 28 -6 50 -15 58 -8 7 -15 34 -17 63 -3 49 -5 53 -40 72 -25 13 -38 28 -40 45 -3 24 -5 25 -76 24 -64 -2 -72 0 -67 15 15 37 73 249 80 289 l7 42 41 -35 c31 -27 50 -35 79 -35 24 0 38 5 38 13 0 8 15 11 50 9 l50 -4 0 36 0 35 53 3 52 3 3 42 c3 37 0 43 -27 59 -26 15 -31 25 -31 56 0 36 -2 38 -47 51 -36 10 -49 19 -51 35 -3 19 -10 22 -46 22 -24 0 -63 -7 -86 -15 -42 -15 -42 -15 -37 8 3 12 9 86 13 165 3 78 9 142 11 142 3 0 16 -9 30 -20 34 -26 111 -28 120 -2 9 25 23 32 66 32 35 0 37 1 37 33 0 31 4 35 40 46 39 11 40 13 40 56 0 41 -2 44 -35 55 -31 10 -35 16 -35 45 0 36 -15 45 -82 45 -27 0 -38 4 -38 15 0 22 -77 19 -123 -5 -20 -11 -39 -20 -42 -20 -2 0 -7 17 -10 38 -14 76 -45 231 -51 246 -5 12 5 14 68 9 69 -5 74 -4 83 18 6 14 23 26 43 32 32 8 34 10 30 48 -2 25 1 39 8 39 6 0 23 10 38 21 22 17 26 28 24 57 -3 34 -6 37 -45 45 -35 7 -42 12 -45 35 -3 27 -3 27 -112 35 l-109 8 -33 -32 c-19 -18 -36 -31 -38 -28 -2 2 -16 33 -31 69 -15 36 -43 95 -61 132 -19 37 -34 70 -34 73 0 3 29 5 65 5 62 0 65 1 65 24 0 17 9 27 30 36 27 11 30 17 30 54 0 32 6 48 25 66 18 17 25 34 25 62 l0 38 -55 0 c-53 0 -55 1 -55 26 l0 27 -102 -8 c-57 -4 -107 -9 -111 -12 -4 -2 -19 -23 -33 -45 l-25 -39 -74 98 c-40 54 -85 113 -100 131 -29 36 -31 33 47 57 37 10 43 16 46 42 2 17 12 39 23 49 20 18 28 94 10 94 -5 0 -7 27 -4 61 l6 61 -57 -3 c-40 -3 -56 0 -56 9 0 21 -83 15 -113 -8 -14 -11 -39 -20 -55 -20 -27 0 -32 -5 -48 -47 -9 -27 -20 -51 -24 -56 -4 -4 -27 8 -53 28 -25 19 -90 65 -144 102 l-98 66 -6 76 c-3 42 -1 90 4 106 5 17 10 86 11 155 1 108 4 131 24 171 30 61 38 134 22 199 -11 47 -11 54 4 62 14 8 16 32 16 171 l0 163 36 13 c19 7 50 26 69 42 59 52 63 73 66 402 2 182 0 300 -6 305 -6 5 -514 14 -1130 21 -1116 11 -1539 12 -1795 1z m402 -1112 c29 -17 54 -32 56 -33 1 -1 -9 -23 -23 -48 -14 -25 -29 -69 -32 -98 l-6 -52 -34 36 c-29 33 -33 43 -33 94 0 32 -3 75 -6 96 -8 47 7 49 78 5z m2048 -117 c0 -27 3 -56 6 -65 4 -10 1 -16 -9 -16 -8 0 -18 12 -22 28 -3 15 -16 37 -27 49 l-20 21 29 16 c41 22 43 21 43 -33z m-2016 -183 c3 -18 19 -45 34 -60 70 -71 80 -94 58 -137 -9 -16 -28 -38 -43 -49 -25 -17 -115 -52 -133 -52 -4 0 -10 21 -13 48 -3 26 -9 55 -12 64 -5 14 0 17 31 20 52 4 65 31 62 130 -3 78 4 94 16 36z m1959 -248 c25 0 49 5 53 11 4 8 10 7 18 -1 8 -10 7 -14 -4 -18 -8 -3 -27 -18 -43 -33 l-27 -28 -61 28 c-50 23 -58 29 -40 34 11 3 21 13 21 23 0 16 1 16 18 1 12 -11 36 -17 65 -17z m-458 -334 c173 -43 333 -113 558 -244 26 -15 71 -48 99 -72 28 -25 69 -57 90 -71 39 -26 230 -222 277 -284 14 -19 44 -58 65 -86 l39 -51 -17 -34 c-9 -19 -16 -52 -16 -73 0 -38 -22 -85 -94 -201 -59 -94 -144 -165 -306 -255 -261 -145 -401 -272 -568 -515 -121 -177 -204 -256 -297 -282 -45 -12 -117 -27 -113 -23 12 11 160 115 165 115 13 0 84 82 131 152 117 176 132 237 93 378 -12 41 -17 84 -14 104 3 19 3 46 -1 60 -6 23 -12 26 -49 26 -24 0 -48 -5 -54 -11 -7 -7 -33 -6 -89 6 -43 9 -117 20 -165 24 -94 9 -142 32 -154 74 -15 48 -47 106 -63 111 -19 7 -252 232 -252 245 0 9 14 24 133 140 48 47 87 92 87 101 0 24 74 219 111 293 38 75 86 142 157 220 l54 58 -4 73 -3 73 50 -13 c28 -7 95 -24 150 -38z m-811 -10 c22 -14 56 -31 77 -38 21 -6 53 -23 70 -38 l32 -26 -19 -30 c-31 -50 -138 -188 -159 -206 -11 -10 -36 -17 -56 -18 -42 0 -49 -11 -49 -71 0 -22 -5 -50 -11 -62 -22 -44 -122 -187 -167 -239 -84 -99 -93 -161 -37 -277 29 -61 95 -232 95 -247 0 -3 -12 2 -27 10 -16 7 -84 33 -153 56 -189 64 -228 84 -245 122 -24 53 -36 63 -124 101 -46 20 -125 65 -175 98 -49 34 -114 72 -143 85 -53 24 -133 32 -133 15 0 -5 -10 -13 -22 -17 -13 -3 -30 -14 -39 -23 -9 -9 -31 -27 -48 -41 -17 -14 -31 -30 -31 -37 0 -7 -11 -23 -25 -35 -19 -16 -25 -31 -25 -62 0 -53 4 -58 70 -91 30 -15 84 -45 120 -66 71 -42 169 -79 208 -79 53 0 230 -115 417 -270 61 -50 137 -107 170 -126 81 -49 94 -60 155 -133 56 -68 111 -100 170 -101 65 -1 80 -9 80 -44 0 -64 -29 -134 -72 -173 -22 -21 -54 -61 -70 -90 l-29 -52 -52 18 c-29 10 -77 25 -107 34 -203 61 -270 83 -309 103 -24 13 -55 24 -68 24 -18 0 -27 9 -39 38 -21 52 -28 66 -77 157 -43 78 -45 80 -86 83 -39 3 -41 5 -41 34 0 46 -25 68 -76 68 -58 0 -68 -19 -62 -124 6 -81 33 -161 64 -187 11 -9 104 -192 104 -205 0 -1 -15 2 -32 7 -49 14 -115 11 -149 -7 -29 -15 -68 -80 -69 -114 0 -12 -27 -3 -107 36 -141 67 -192 119 -223 225 -28 93 -54 145 -94 187 -52 56 -94 72 -191 72 -65 0 -85 3 -85 14 0 82 62 309 136 498 74 191 181 384 262 473 15 17 45 54 67 83 62 81 239 257 326 323 43 32 81 64 84 70 4 5 32 21 63 35 32 14 71 38 87 54 27 26 187 107 290 148 22 8 45 18 50 22 29 22 137 42 215 41 59 0 99 5 130 17 58 23 131 14 184 -22z m2098 -1159 c-12 -23 -24 -60 -28 -82 -14 -79 -221 -253 -376 -317 -39 -15 -75 -28 -81 -28 -7 0 35 28 92 63 133 79 253 196 341 331 64 98 90 115 52 33z m187 -797 c1 -194 -25 -405 -64 -525 -7 -22 -19 -65 -25 -95 -19 -82 -133 -345 -187 -427 -14 -22 -16 -22 -46 -6 -25 12 -50 15 -123 10 l-93 -5 -7 31 c-3 18 -19 50 -34 72 -15 22 -61 104 -103 182 -90 169 -134 238 -193 298 -50 52 -71 55 -209 30 -44 -8 -92 -15 -107 -15 -15 0 -42 -9 -60 -19 -27 -16 -283 -91 -311 -91 -4 0 -4 32 -1 70 l7 70 -54 1 c-53 2 -53 2 17 9 39 4 87 15 107 25 49 23 210 158 281 236 143 156 239 209 468 258 206 44 309 81 400 143 85 58 236 175 263 202 l29 31 22 -155 c17 -112 23 -204 23 -330z m-4054 14 c35 -23 59 -67 90 -161 43 -135 110 -206 257 -271 46 -21 93 -43 105 -50 l22 -12 -36 -58 c-20 -31 -52 -93 -71 -137 -18 -44 -42 -88 -52 -97 -42 -39 -39 -185 8 -341 35 -115 65 -154 149 -189 44 -18 53 -26 53 -46 0 -27 44 -127 60 -137 6 -3 10 -15 10 -25 0 -24 55 -107 81 -120 10 -6 19 -15 19 -20 0 -17 77 -90 93 -90 9 0 21 -9 27 -21 11 -20 11 -20 -17 -3 -277 174 -501 404 -680 699 -55 90 -127 244 -173 370 -32 86 -78 324 -89 458 -16 190 -17 185 29 229 45 42 76 48 115 22z m2317 -455 c-46 -20 -62 -18 -62 7 0 10 13 14 53 13 l52 0 -43 -20z m-1447 -281 c11 -49 23 -58 74 -58 25 0 55 -7 65 -15 11 -8 28 -15 37 -15 10 0 44 -13 76 -29 81 -41 158 -71 181 -71 11 0 25 -7 32 -15 7 -8 10 -15 7 -15 -2 0 -21 7 -40 15 -20 8 -64 15 -98 15 -83 0 -125 -25 -141 -85 l-12 -44 -45 38 c-70 58 -102 71 -176 71 -37 0 -75 -5 -85 -10 -15 -8 -24 -6 -40 7 -21 18 -21 18 12 23 30 5 37 13 80 100 26 52 48 101 48 108 0 25 19 11 25 -20z m2213 -140 c39 -51 96 -124 126 -161 31 -38 56 -74 56 -80 0 -7 45 -58 99 -115 l100 -102 7 -69 6 -68 -108 -97 c-113 -101 -184 -156 -204 -156 -6 0 -2 12 9 26 12 15 21 33 21 40 0 8 9 23 20 34 11 11 20 27 20 36 0 9 9 27 20 41 13 17 20 41 20 68 0 30 6 47 21 61 19 17 21 26 16 81 -6 57 -31 127 -60 163 -19 24 -73 60 -109 72 -18 6 -49 22 -68 35 -29 19 -48 23 -112 23 -75 0 -78 -1 -150 -49 l-73 -49 -7 46 c-5 35 -15 54 -38 75 -28 25 -37 27 -110 27 -43 0 -91 -5 -106 -10 -24 -9 -25 -9 -14 5 7 8 27 15 45 15 18 0 43 8 56 19 13 10 44 21 67 24 24 3 54 15 66 26 14 13 36 21 57 21 19 0 44 6 55 14 11 8 38 16 60 18 35 3 39 6 44 33 4 26 10 31 45 36 22 3 43 7 46 8 4 0 38 -41 77 -91z m-2498 -18 c0 -15 -7 -20 -27 -20 -25 0 -26 0 -8 20 10 11 22 20 27 20 4 0 8 -9 8 -20z m693 -155 c20 -14 37 -28 37 -30 0 -3 -36 -5 -80 -5 -84 0 -95 7 -63 42 23 25 62 23 106 -7z m-406 -6 c33 -20 34 -23 27 -68 -4 -25 -8 -48 -10 -50 -9 -10 -76 34 -89 59 -19 37 -19 50 3 66 23 18 29 17 69 -7z m613 -9 c46 -38 34 -39 -15 0 -21 17 -34 30 -28 30 5 0 24 -13 43 -30z m870 -17 c0 -13 -68 -55 -82 -51 -7 3 8 16 32 31 50 30 50 30 50 20z m249 -18 c24 -12 48 -43 39 -50 -2 -1 -43 1 -93 4 l-90 6 45 27 c52 32 61 33 99 13z m391 -53 c38 -31 7 -90 -62 -120 -31 -13 -34 -7 -40 68 -3 31 1 37 32 52 43 22 43 22 70 0z m-1884 -22 c47 0 74 -4 69 -9 -19 -18 -178 -62 -188 -52 -5 5 -6 26 -3 45 6 32 9 35 26 26 10 -5 54 -10 96 -10z m2060 -88 c14 -20 13 -20 -25 -5 -30 12 -37 19 -34 34 5 16 8 17 25 5 11 -8 26 -23 34 -34z m-2383 7 c61 -31 104 -65 110 -89 5 -19 1 -20 -62 -20 -47 0 -78 -6 -105 -20 -37 -18 -40 -18 -52 -2 -19 25 -17 32 11 32 23 0 25 3 25 48 0 40 12 72 27 72 2 0 23 -10 46 -21z m2015 -38 c3 -41 3 -42 -25 -35 -28 7 -173 70 -173 76 0 2 44 3 98 2 l97 0 3 -43z m-1775 -62 c-4 -16 -8 -17 -14 -7 -13 19 -11 28 5 28 9 0 12 -7 9 -21z m2089 -30 c27 -20 29 -25 23 -63 -4 -22 -15 -49 -24 -59 -17 -17 -19 -17 -62 7 -26 14 -70 28 -107 32 -49 5 -62 10 -58 21 4 8 6 19 6 24 0 10 45 36 105 60 44 18 66 14 117 -22z m-1892 -45 c-18 -21 -45 -48 -60 -61 -25 -21 -32 -22 -49 -11 -27 17 -26 26 2 33 12 4 47 21 77 40 30 18 57 34 59 34 1 1 -11 -15 -29 -35z m-313 -44 c16 -6 37 -23 46 -39 l17 -28 -47 -6 c-35 -4 -54 -12 -73 -34 l-25 -28 -24 22 c-20 19 -51 67 -51 79 0 2 15 13 33 24 35 22 79 25 124 10z m1768 -85 c16 -9 15 -12 -10 -25 -27 -15 -28 -14 -81 44 -30 33 -54 63 -54 67 0 4 29 -12 63 -34 35 -23 72 -47 82 -52z m-390 -119 c22 -79 35 -102 80 -151 40 -42 41 -40 -18 -59 -14 -5 -18 -14 -15 -48 l3 -43 55 -7 c30 -3 102 -4 160 -1 58 3 102 3 99 -1 -6 -7 -90 -31 -229 -67 -60 -16 -94 -18 -170 -14 -52 3 -105 8 -118 11 l-23 5 21 26 c26 33 26 73 -1 125 -17 33 -20 55 -17 111 4 79 19 99 89 117 36 10 39 14 39 46 0 28 -5 36 -25 44 -14 5 -25 17 -25 27 0 13 10 7 39 -21 29 -28 43 -54 56 -100z m680 95 c54 -24 70 -44 50 -61 -8 -7 -15 -20 -15 -29 0 -10 -13 -27 -29 -39 -28 -20 -30 -21 -36 -3 -10 33 -52 62 -99 69 l-47 7 28 32 c25 29 45 38 93 41 8 1 33 -7 55 -17z m-1862 -57 c3 -4 -13 -26 -36 -50 -29 -31 -50 -44 -69 -44 -18 0 -28 5 -28 14 0 8 -10 22 -22 30 -30 21 -9 44 45 49 78 7 104 7 110 1z m440 -51 l38 -6 -21 -22 c-11 -11 -20 -31 -20 -44 0 -12 -19 -49 -41 -83 -39 -56 -41 -64 -37 -117 l4 -58 -44 9 c-25 4 -68 7 -96 7 -40 -1 -79 10 -183 51 -72 29 -149 63 -170 77 -21 13 -29 21 -18 18 11 -4 34 -11 50 -15 17 -5 44 -13 60 -18 94 -32 325 -53 350 -32 18 15 20 81 3 98 -7 7 -23 12 -37 12 -24 0 -23 2 21 48 25 26 51 57 58 70 8 16 17 21 28 17 9 -4 34 -9 55 -12z m-268 -30 c-5 -10 -13 -33 -19 -50 -12 -35 -35 -43 -56 -18 -7 8 -21 15 -32 15 -30 0 -11 20 46 46 61 29 71 30 61 7z m1478 -9 c26 -3 57 -14 69 -24 l22 -17 -37 -37 c-20 -20 -43 -36 -52 -36 -8 0 -25 17 -39 38 -13 20 -33 46 -45 56 -29 26 -26 39 7 32 15 -3 49 -8 75 -12z m-223 -55 c19 -12 45 -31 58 -42 l23 -21 -23 -13 c-13 -7 -38 -12 -55 -13 -28 0 -33 4 -33 23 0 12 -9 37 -20 55 -18 29 -18 32 -2 32 9 0 33 -10 52 -21z m-1642 -38 c3 -9 -4 -8 -27 3 -17 9 -31 18 -31 20 0 10 54 -12 58 -23z">
</path>
</g>
</g>
<g id="l10M30Y2jwb5RtwC8iYkCEz" fill="rgba(255,255,255,0)" style="transform: none;">
<g>
<path id="p4lc6OwtO" d="M0 6000 l0 -6000 5900 0 5900 0 0 6000 0 6000 -5900 0 -5900 0 0 -6000z m6835 4194 c347 -4 634 -10 638 -14 5 -4 8 -128 7 -275 -1 -285 -4 -311 -53 -364 -12 -13 -44 -34 -70 -46 l-49 -23 2 -158 c1 -153 0 -159 -22 -175 l-22 -17 17 -74 c19 -82 16 -106 -29 -196 -26 -52 -27 -56 -15 -115 9 -47 9 -79 1 -131 -6 -38 -13 -73 -16 -77 -2 -5 -2 -56 2 -114 l7 -105 42 -24 c23 -14 101 -68 173 -121 72 -52 133 -95 136 -95 3 0 6 9 6 20 0 21 38 130 46 130 2 0 12 -5 22 -11 15 -9 24 -6 49 20 35 35 63 40 63 13 0 -28 9 -32 45 -16 68 28 79 15 45 -49 -26 -48 -25 -57 5 -57 31 0 31 -7 3 -38 -13 -13 -23 -35 -23 -49 0 -22 -8 -27 -78 -49 l-78 -25 51 -62 c27 -34 87 -113 133 -174 45 -62 87 -112 92 -112 6 0 21 22 34 49 13 28 33 57 43 67 17 15 20 15 35 1 14 -15 18 -15 47 3 17 10 42 19 55 19 20 0 22 -4 17 -25 -7 -28 -7 -28 67 -25 26 1 47 -3 47 -9 0 -5 -20 -27 -45 -48 -51 -42 -54 -49 -25 -58 29 -9 24 -31 -10 -45 -29 -12 -34 -20 -31 -47 1 -10 -19 -13 -72 -13 -40 0 -76 -3 -80 -6 -3 -4 18 -54 47 -113 29 -58 65 -136 81 -174 15 -37 33 -71 40 -77 8 -6 26 6 60 40 54 55 62 58 80 33 11 -15 17 -15 39 -5 53 24 115 10 81 -18 -22 -18 -10 -27 45 -35 27 -4 52 -11 55 -15 7 -12 -44 -50 -66 -50 -31 0 -41 -32 -17 -57 l20 -22 -33 -8 c-21 -6 -38 -18 -44 -32 -9 -19 -15 -22 -45 -16 -96 18 -120 18 -120 2 0 -8 11 -62 24 -119 14 -57 30 -136 36 -176 7 -42 18 -76 25 -78 7 -3 40 8 72 25 66 35 80 38 85 15 2 -12 16 -16 55 -18 61 -2 72 -9 54 -38 -15 -24 -9 -32 42 -48 53 -17 47 -37 -18 -55 -54 -16 -71 -37 -40 -49 28 -10 15 -26 -22 -26 -43 0 -57 -7 -66 -32 -9 -25 -28 -22 -73 12 -21 16 -48 30 -60 30 -20 0 -21 -7 -28 -137 -4 -76 -9 -171 -13 -210 -7 -85 -4 -87 85 -53 66 25 80 25 84 -2 2 -16 15 -25 51 -35 47 -14 57 -28 35 -52 -14 -13 -4 -25 52 -62 36 -24 17 -39 -52 -39 -64 0 -65 0 -42 -54 6 -17 4 -18 -17 -13 -71 20 -70 20 -76 -2 -3 -11 -8 -21 -12 -21 -3 0 -31 20 -61 45 -30 25 -60 45 -67 45 -13 0 -12 3 -48 -142 -14 -58 -37 -139 -50 -179 -39 -113 -39 -112 53 -108 75 4 77 3 75 -18 -2 -18 7 -28 38 -43 46 -24 60 -48 36 -62 -23 -13 -21 -22 13 -60 34 -36 40 -62 13 -54 -10 3 -40 8 -67 12 l-48 7 7 -32 c5 -26 4 -31 -12 -31 -10 0 -29 7 -42 16 -22 16 -24 16 -33 0 -14 -26 -24 -20 -73 44 -25 33 -51 60 -56 60 -5 0 -18 -14 -27 -31 -9 -17 -57 -96 -105 -176 -49 -79 -86 -150 -84 -157 3 -7 29 -16 59 -20 79 -11 98 -17 98 -32 0 -8 -4 -14 -10 -14 -19 0 -10 -18 25 -53 36 -36 44 -57 23 -57 -35 -1 -40 -17 -19 -58 19 -38 27 -72 17 -72 -2 0 -25 9 -51 20 -62 26 -75 25 -75 -5 0 -32 -20 -32 -50 0 -17 19 -27 22 -41 15 -10 -6 -20 -10 -22 -10 -3 0 -16 30 -29 66 -12 37 -29 69 -36 72 -14 5 -322 -294 -322 -313 0 -5 25 -21 55 -34 66 -28 82 -45 66 -65 -10 -12 -7 -23 15 -55 28 -43 27 -71 -4 -71 -28 0 -29 -5 -18 -60 5 -27 7 -52 3 -56 -3 -4 -27 12 -53 35 -26 22 -51 41 -55 41 -5 0 -11 -11 -15 -25 -8 -34 -29 -32 -44 4 -8 21 -20 31 -38 33 -25 3 -28 7 -37 78 -8 60 -13 74 -26 72 -9 -1 -56 -27 -105 -57 -49 -30 -126 -75 -171 -101 -46 -25 -83 -49 -83 -53 0 -4 27 -29 60 -57 33 -27 60 -52 60 -56 0 -4 -9 -12 -20 -18 -19 -10 -19 -13 -5 -40 14 -28 21 -90 9 -90 -3 0 -14 5 -24 10 -20 11 -23 2 -32 -79 -5 -41 -24 -34 -57 19 -17 27 -35 50 -39 50 -5 0 -14 -12 -20 -26 -15 -31 -27 -25 -42 22 -9 27 -16 33 -30 29 -27 -9 -30 5 -19 79 8 49 8 71 0 79 -8 8 -45 0 -139 -30 -70 -23 -136 -44 -147 -47 -87 -22 -105 -28 -105 -37 0 -10 10 -25 68 -99 24 -31 22 -50 -5 -50 -12 0 -14 -9 -9 -47 8 -60 -3 -80 -33 -64 -18 10 -22 9 -28 -6 -3 -10 -12 -25 -19 -33 -7 -8 -14 -26 -16 -40 -4 -22 -7 -20 -29 25 -39 81 -39 81 -60 54 -21 -28 -30 -22 -38 28 -5 29 -11 37 -24 35 -22 -4 -22 13 0 94 11 40 14 67 8 72 -6 5 -63 3 -130 -4 -66 -7 -159 -13 -207 -13 -49 -1 -90 -6 -93 -11 -4 -6 0 -21 8 -33 8 -12 16 -54 19 -92 4 -62 2 -73 -20 -102 -13 -18 -21 -37 -17 -43 4 -7 -2 -14 -14 -17 -13 -3 -21 -13 -21 -28 0 -18 -5 -21 -23 -18 -17 4 -25 -2 -34 -27 -14 -36 -35 -36 -43 1 -4 15 -14 25 -28 27 -14 2 -22 10 -22 23 0 11 -7 22 -15 25 -8 4 -15 17 -15 29 0 13 -5 27 -11 30 -6 4 -8 13 -5 20 2 7 0 17 -6 23 -16 16 9 137 33 158 41 37 21 49 -116 72 -33 6 -111 20 -173 33 -62 12 -115 19 -118 16 -3 -3 2 -29 10 -58 22 -72 21 -99 -3 -99 -14 0 -20 -10 -25 -40 -7 -44 -34 -56 -43 -20 -8 31 -19 24 -52 -35 -17 -30 -35 -55 -40 -55 -10 0 -21 35 -21 72 0 32 -15 44 -35 28 -31 -26 -47 27 -25 85 9 23 7 28 -10 32 -30 8 -25 24 31 86 28 32 50 59 48 61 -7 6 -144 64 -169 71 -14 4 -63 27 -108 51 -46 24 -86 44 -88 44 -2 0 -4 -33 -4 -72 0 -81 -6 -97 -34 -95 -13 1 -22 -6 -26 -23 -7 -31 -36 -38 -45 -11 -9 30 -19 26 -59 -21 -20 -23 -39 -38 -43 -34 -5 4 -8 31 -8 59 0 48 -2 52 -22 49 -33 -5 -36 14 -13 62 18 35 20 47 11 64 -10 19 -5 26 44 63 30 23 55 43 55 44 0 2 -30 25 -67 51 -38 27 -111 84 -165 126 -53 43 -101 78 -106 78 -6 0 -15 -23 -21 -51 -14 -66 -28 -91 -49 -87 -10 1 -31 -9 -47 -24 -31 -29 -50 -27 -42 3 7 26 -4 24 -62 -13 -28 -17 -54 -28 -58 -24 -4 4 1 29 10 57 20 54 16 69 -14 69 -16 0 -19 4 -14 23 4 12 19 32 34 44 23 19 25 24 13 43 -7 12 -12 23 -10 25 12 10 68 34 95 40 18 3 36 11 39 17 4 5 -12 29 -33 51 -34 35 -98 115 -224 280 -26 34 -35 28 -73 -48 -16 -30 -30 -55 -32 -55 -2 0 -13 5 -23 12 -15 9 -24 7 -46 -10 -32 -26 -44 -22 -37 13 5 30 -9 32 -61 10 -72 -30 -84 -16 -41 46 26 38 25 59 -2 59 -34 0 4 58 48 73 13 5 16 13 12 35 l-6 29 72 6 c40 3 74 8 77 10 2 2 -21 58 -50 123 -30 66 -65 149 -78 187 -13 37 -28 67 -34 67 -5 0 -33 -23 -61 -51 -50 -50 -52 -51 -63 -30 -11 20 -14 20 -39 7 -36 -18 -59 -7 -43 21 15 28 6 33 -61 33 -32 0 -58 4 -58 8 0 5 19 24 41 42 l42 33 -24 19 c-24 18 -24 18 -4 34 11 8 32 18 48 21 22 4 27 11 27 34 0 16 4 29 9 29 16 0 106 -19 125 -26 18 -7 19 -4 13 47 -4 30 -13 97 -22 149 -8 52 -15 121 -15 152 0 31 -4 59 -8 62 -5 3 -37 -12 -73 -34 -61 -37 -64 -38 -73 -19 -7 14 -19 19 -48 19 -40 0 -48 10 -23 30 25 21 17 29 -34 36 -85 11 -92 32 -20 61 44 17 45 20 24 50 -18 26 -11 31 47 41 28 5 43 13 43 22 0 24 32 23 92 -4 31 -15 58 -25 60 -23 6 7 44 409 39 414 -3 3 -33 -4 -67 -16 -77 -26 -79 -26 -79 -2 0 15 -10 21 -40 26 -44 7 -51 19 -20 35 31 16 25 24 -35 49 -31 13 -54 28 -52 34 2 6 26 16 53 22 48 10 49 12 46 44 l-2 34 50 -5 c37 -4 50 -2 50 8 0 27 19 22 74 -16 31 -22 61 -40 66 -40 5 0 23 46 41 103 17 56 44 135 60 175 16 40 29 76 29 81 0 5 -37 7 -81 4 -79 -6 -81 -6 -75 15 6 18 1 24 -28 36 -42 18 -46 33 -11 42 14 3 25 9 25 12 0 4 -19 23 -42 42 -49 43 -45 60 18 60 39 0 44 2 44 23 0 35 7 37 56 19 42 -16 44 -15 59 3 17 22 16 23 76 -56 31 -40 43 -35 78 34 12 24 60 99 106 168 94 138 95 128 -10 150 -62 13 -90 28 -67 36 19 7 14 23 -14 49 -27 26 -24 48 6 39 27 -9 32 9 11 36 -28 37 -43 68 -36 79 3 5 26 1 55 -10 52 -20 53 -20 50 18 -1 12 4 22 10 22 18 0 53 -21 71 -44 15 -18 19 -19 34 -6 15 13 19 12 31 -5 8 -11 20 -37 26 -57 6 -21 15 -38 19 -38 5 0 71 63 147 140 90 91 135 143 128 149 -6 4 -33 16 -59 26 -54 20 -63 30 -48 49 8 9 4 19 -14 36 -31 29 -34 54 -5 45 36 -11 40 4 15 57 -29 62 -18 78 31 47 41 -25 64 -25 64 1 0 28 22 25 51 -6 18 -20 30 -24 52 -20 32 7 40 -7 52 -92 4 -29 10 -52 14 -50 3 2 45 25 92 52 l86 50 8 95 c10 129 10 191 1 286 -7 61 -5 94 7 140 12 47 13 70 5 105 -17 71 -9 271 15 397 14 71 13 73 -10 106 -26 37 -56 147 -47 171 3 9 25 18 50 22 28 4 44 11 44 20 0 15 -68 156 -79 164 -25 18 -173 315 -169 338 3 15 21 18 138 23 141 7 1148 3 2225 -7z">
</path>
<path id="pcZR10ME3" d="M4865 9133 c5 -27 9 -81 10 -122 1 -68 3 -76 35 -114 50 -58 59 -77 59 -122 1 -48 -18 -89 -42 -93 -9 -2 -32 8 -49 23 l-32 27 -18 -24 c-27 -36 -23 -64 11 -76 40 -14 59 -75 36 -118 -17 -34 -19 -54 -5 -54 23 0 197 64 223 82 41 29 60 73 55 128 -5 46 -14 61 -70 118 -15 15 -30 41 -34 57 -4 17 -13 37 -21 46 -28 33 19 141 72 166 32 15 46 33 27 33 -4 0 -43 20 -86 45 -65 37 -89 45 -129 45 l-50 0 8 -47z">
</path>
<path id="pqXNaw4Bl" d="M6973 9075 c-34 -18 -68 -35 -75 -37 -8 -3 2 -20 29 -48 27 -28 45 -59 53 -89 7 -25 14 -52 16 -59 3 -9 16 0 39 23 l35 37 -7 104 c-4 67 -10 103 -17 103 -6 -1 -39 -17 -73 -34z"></path>
<path id="pwKx9n6BE" d="M6874 8673 c-12 -58 -21 -78 -35 -80 -8 -1 -35 -5 -61 -8 -27 -3 -48 -10 -48 -14 0 -7 167 -83 257 -118 6 -2 17 8 25 24 7 15 28 35 45 43 38 17 42 43 17 93 -9 18 -18 34 -20 36 -2 2 -19 -8 -38 -23 -56 -42 -86 -30 -86 36 0 34 -3 38 -25 38 -19 0 -26 -7 -31 -27z">
</path>
<path id="pVbR8Ybpy" d="M5517 8292 c-54 -29 -143 -40 -175 -23 -17 9 -37 6 -99 -15 -43 -14 -97 -34 -120 -45 -24 -10 -45 -19 -47 -19 -20 0 -248 -118 -271 -140 -16 -16 -55 -40 -87 -54 -31 -14 -59 -30 -63 -35 -3 -6 -41 -38 -84 -70 -87 -66 -264 -242 -326 -323 -22 -29 -52 -66 -67 -83 -152 -168 -338 -600 -388 -900 -11 -68 -23 -131 -26 -139 -5 -14 6 -15 88 -9 82 5 98 3 133 -15 79 -40 125 -108 165 -241 32 -110 79 -155 243 -236 72 -35 134 -62 139 -59 4 3 8 15 8 27 1 41 37 105 70 122 39 20 76 15 160 -22 41 -17 68 -23 86 -19 l27 7 -46 47 c-30 31 -62 80 -92 143 -25 53 -52 102 -59 108 -24 20 -55 98 -62 154 -7 56 6 97 30 97 18 0 49 -37 42 -49 -9 -15 13 -92 31 -113 25 -28 32 -21 26 23 -9 67 23 47 74 -46 39 -72 53 -100 83 -172 6 -15 18 -23 33 -23 13 0 44 -11 69 -24 25 -13 94 -38 154 -56 60 -18 163 -50 229 -71 67 -22 125 -39 130 -39 6 0 23 24 38 54 16 30 48 73 72 95 52 49 75 112 75 207 0 68 -5 73 -80 74 -59 1 -114 33 -170 101 -61 73 -74 84 -155 133 -33 19 -109 76 -170 126 -187 155 -364 270 -417 270 -41 0 -136 37 -217 84 -42 25 -97 55 -123 67 -60 29 -69 53 -34 86 14 13 26 29 26 36 0 7 14 23 31 37 18 14 39 33 48 43 8 9 21 17 28 17 6 0 19 7 27 16 15 14 20 14 64 -3 26 -9 93 -48 150 -86 56 -38 139 -85 185 -104 86 -38 98 -48 122 -101 17 -38 56 -58 245 -122 121 -41 189 -72 239 -107 l23 -17 -7 44 c-12 73 -54 198 -102 304 -42 90 -45 101 -35 135 6 20 34 63 61 95 50 59 147 199 171 246 7 13 12 40 12 60 -3 58 5 70 46 70 45 1 60 13 139 116 76 100 107 157 98 184 -8 26 -60 64 -107 79 -20 7 -54 24 -75 38 -23 16 -57 28 -85 31 -26 2 -53 11 -59 18 -14 18 -14 18 -72 -14z">
</path>
<path id="pIzFCPkiC" d="M6274 8293 c4 -16 9 -49 13 -74 5 -45 4 -48 -48 -105 -72 -79 -120 -146 -158 -221 -37 -74 -111 -269 -111 -293 0 -15 -158 -181 -180 -188 -21 -7 -52 -73 -46 -97 7 -26 230 -252 258 -261 9 -3 26 -26 38 -52 39 -86 45 -95 80 -113 19 -11 55 -19 80 -19 46 0 162 -19 257 -41 46 -11 55 -10 71 4 37 34 46 24 43 -50 -2 -23 7 -76 18 -117 27 -100 27 -115 -9 -186 -57 -113 -187 -290 -213 -290 -7 0 -154 -105 -179 -127 -25 -23 -23 -51 5 -55 23 -3 115 12 182 30 93 26 176 104 297 282 167 243 307 370 568 515 162 90 247 161 306 255 71 115 94 163 94 200 0 21 9 57 20 81 11 24 20 51 20 60 0 9 -20 43 -45 75 -24 33 -54 73 -67 90 -43 58 -238 257 -276 283 -21 14 -62 46 -90 71 -28 24 -73 57 -99 72 -225 131 -385 201 -558 244 -55 14 -125 32 -155 39 -30 8 -70 15 -89 15 -31 0 -33 -2 -27 -27z">
</path>
<path id="p1Do0d42SE" d="M7788 7163 c-8 -10 -43 -61 -78 -113 -96 -145 -197 -237 -381 -347 -85 -51 -167 -103 -184 -117 l-30 -25 27 -1 c35 0 217 51 296 83 87 35 197 112 282 197 67 66 77 82 88 130 7 30 24 71 38 91 25 37 25 37 7 75 -21 44 -42 53 -65 27z">
</path>
<path id="poVGFiFPB" d="M7895 6766 c-35 -37 -172 -144 -273 -214 -91 -61 -194 -98 -400 -143 -161 -34 -268 -77 -338 -134 -24 -20 -94 -86 -156 -148 -132 -132 -235 -211 -292 -226 -23 -5 -94 -13 -158 -17 -70 -4 -122 -12 -128 -19 -11 -13 22 -110 36 -109 5 0 39 15 76 32 37 18 83 32 101 32 l33 0 0 -72 -1 -73 35 3 c59 5 303 72 338 93 18 10 44 19 58 19 13 0 64 7 114 15 106 19 113 16 182 -73 56 -72 89 -126 173 -287 38 -72 79 -143 91 -160 12 -16 25 -45 29 -64 l7 -34 93 7 c88 7 95 6 148 -20 31 -16 58 -26 60 -23 1 2 28 54 59 114 73 143 132 286 148 355 6 30 18 73 25 95 15 48 41 184 58 315 18 135 13 386 -13 576 -30 226 -36 235 -105 160z">
</path>
<path id="pWt9jYE2M" d="M3832 6323 c-59 -29 -82 -67 -82 -133 0 -184 51 -511 100 -645 90 -244 216 -467 365 -641 230 -271 497 -466 821 -598 142 -57 236 -84 242 -68 4 13 80 6 95 -8 8 -8 74 3 84 14 3 3 -2 21 -11 40 -23 49 -21 60 24 126 22 32 40 70 40 83 0 13 9 32 20 42 26 24 47 92 33 106 -8 8 -18 6 -36 -6 -23 -14 -29 -15 -61 -1 -19 8 -41 24 -48 35 -19 30 -26 26 -38 -21 -8 -27 -30 -61 -65 -97 -29 -31 -55 -67 -57 -81 -3 -22 1 -25 29 -28 43 -4 62 -27 40 -50 -15 -14 -26 -15 -104 -4 -143 20 -187 28 -213 39 -14 6 -51 19 -83 29 -33 10 -63 27 -68 36 -5 10 -19 18 -30 18 -11 0 -30 11 -43 25 -13 14 -29 25 -36 25 -14 0 -90 75 -90 90 0 5 -9 14 -19 20 -26 13 -81 96 -81 120 0 10 -4 22 -10 25 -16 10 -60 110 -60 137 0 21 -8 28 -47 43 -80 31 -120 76 -148 169 -52 169 -56 265 -15 304 11 10 33 51 50 91 16 40 53 111 81 157 29 47 50 86 48 87 -31 24 -78 49 -143 77 -147 63 -218 137 -261 273 -33 101 -63 149 -108 170 -44 21 -73 21 -115 0z">
</path>
<path id="p12pbhYURz" d="M4920 5977 c0 -8 8 -21 18 -29 37 -33 323 -163 344 -156 5 2 -26 23 -69 48 -283 160 -293 164 -293 137z">
</path>
<path id="puq7Du4IW" d="M4762 5618 c-7 -7 -12 -16 -12 -21 0 -15 -89 -195 -100 -202 -7 -4 -17 -2 -23 4 -8 8 -16 6 -28 -5 -26 -23 -51 -11 -43 21 5 22 3 25 -19 25 -14 0 -27 6 -30 13 -8 20 -64 -44 -72 -80 l-7 -33 61 0 c64 0 131 -24 131 -47 0 -24 27 -25 69 -4 77 40 131 26 234 -60 65 -55 97 -63 97 -25 0 70 54 126 121 126 19 0 58 -12 88 -25 l55 -26 43 23 c37 20 46 21 75 10 36 -13 47 -8 32 16 -7 11 -29 19 -62 22 -33 4 -59 13 -74 27 -13 12 -33 21 -45 21 -23 -2 -76 18 -166 63 -32 16 -66 29 -75 29 -9 0 -33 12 -54 27 -34 23 -41 25 -63 13 -31 -16 -50 -3 -59 42 -9 47 -49 71 -74 46z">
</path>
<path id="p17aQnjRed" d="M6925 5538 c-11 -7 -38 -15 -60 -18 -35 -4 -41 -9 -45 -35 -5 -27 -9 -30 -39 -27 -21 1 -42 -5 -58 -18 -15 -11 -41 -20 -61 -20 -23 0 -44 -8 -59 -22 -15 -14 -37 -22 -61 -22 -23 -1 -49 -10 -67 -24 -21 -16 -38 -22 -56 -18 -19 3 -32 -1 -45 -15 -14 -16 -30 -20 -73 -19 -137 2 -167 -7 -149 -45 14 -30 18 -30 68 -5 53 27 92 25 128 -5 l30 -25 43 20 c26 11 66 20 96 20 44 0 58 -5 84 -28 26 -23 32 -38 37 -81 3 -32 10 -55 18 -58 8 -3 55 22 105 56 79 53 96 61 137 61 33 0 58 -7 82 -23 19 -13 50 -29 68 -35 36 -12 90 -48 109 -72 20 -25 50 -92 57 -129 7 -36 -13 -71 -41 -71 -16 0 -16 -8 -2 -49 10 -28 9 -37 -10 -61 -11 -16 -21 -36 -21 -45 0 -8 -9 -24 -20 -35 -11 -11 -20 -25 -20 -31 0 -21 -55 -98 -75 -105 -11 -4 -39 -29 -63 -55 -24 -27 -52 -49 -61 -49 -10 0 -28 -9 -41 -20 -13 -11 -31 -20 -42 -20 -10 0 -26 -8 -36 -18 -10 -10 -45 -24 -77 -31 -33 -6 -75 -17 -93 -22 -17 -6 -40 -8 -50 -4 -11 3 -48 1 -83 -3 -83 -12 -174 -2 -174 18 0 8 15 18 38 23 32 8 37 13 37 37 0 16 -11 39 -27 56 -54 57 -74 90 -94 159 -22 73 -59 124 -110 151 -33 17 -44 6 -54 -52 -6 -40 -5 -42 27 -54 l33 -12 -25 -10 c-102 -41 -110 -52 -110 -137 0 -26 -5 -52 -11 -58 -9 -9 -4 -29 19 -78 l31 -66 -40 -44 c-22 -24 -38 -48 -35 -53 10 -17 138 -32 273 -32 58 0 117 13 278 58 100 28 323 120 390 161 22 14 56 32 75 42 19 9 53 31 74 48 22 18 55 39 73 47 39 19 163 123 258 218 54 54 66 70 53 73 -14 3 -18 16 -20 51 -1 26 -2 58 -3 72 -1 17 -33 58 -103 130 -56 58 -102 110 -102 117 0 6 -28 46 -62 89 -35 42 -94 117 -133 167 -38 50 -74 92 -80 94 -5 1 -19 -3 -30 -9z">
</path>
<path id="p1BPyhKU96" d="M5081 5272 c-30 -29 -39 -64 -23 -88 4 -7 53 -14 122 -17 63 -3 131 -9 150 -13 l35 -6 -50 51 c-64 67 -101 90 -158 97 -42 6 -49 4 -76 -24z">
</path>
<path id="pScbrIcrs" d="M5340 5272 c-27 -22 -22 -36 28 -77 34 -29 101 -50 115 -36 20 20 1 66 -41 98 -50 38 -70 41 -102 15z">
</path>
<path id="psPFC1ZEh" d="M4702 5260 c-27 -25 -27 -52 -3 -106 15 -33 31 -47 79 -72 34 -18 63 -32 66 -32 3 0 8 17 11 38 4 20 13 57 21 81 8 25 14 46 14 48 0 1 -19 16 -42 33 -51 37 -112 41 -146 10z">
</path>
<path id="pTg1O4aYN" d="M6214 5214 c-61 -36 -90 -67 -79 -84 4 -6 32 -10 64 -10 45 0 64 5 92 25 56 42 62 55 37 82 -29 31 -43 29 -114 -13z">
</path>
<path id="p1HPBhiBi3" d="M4602 5218 c-13 -13 -15 -49 -6 -85 5 -17 14 -23 35 -23 37 0 41 9 27 69 -12 52 -30 65 -56 39z">
</path>
<path id="p10iL3raeg" d="M6409 5201 c-24 -15 -62 -45 -84 -65 l-40 -36 105 6 c59 3 124 1 149 -4 53 -13 67 -8 75 23 23 90 -108 138 -205 76z">
</path>
<path id="pc4qVVAOR" d="M4900 5143 c-7 -21 -10 -58 -8 -83 3 -43 4 -45 37 -48 42 -4 202 44 219 66 6 9 12 26 12 39 0 22 -3 23 -82 23 -65 0 -90 4 -116 20 -44 27 -49 26 -62 -17z">
</path>
<path id="pbMXS5zN6" d="M6835 5166 c-48 -21 -58 -39 -47 -83 6 -21 13 -59 17 -85 3 -27 10 -48 15 -48 13 0 107 45 125 60 19 16 45 74 45 102 0 10 -11 30 -25 43 -28 28 -80 33 -130 11z">
</path>
<path id="pe7I9Wsju" d="M5197 5126 c-15 -38 2 -47 81 -44 119 5 102 32 -34 54 -32 5 -42 3 -47 -10z">
</path>
<path id="p6VMlArgY" d="M7026 5108 c-3 -7 -9 -28 -15 -47 -16 -50 -14 -58 17 -66 15 -3 44 -18 65 -31 65 -43 93 -13 57 61 -15 31 -35 53 -64 70 -49 29 -55 30 -60 13z">
</path>
<path id="pWxO8HPVP" d="M6711 5078 c-11 -12 -104 -15 -181 -6 -22 3 -25 -1 -25 -32 0 -34 3 -36 78 -73 48 -24 98 -41 132 -44 53 -6 55 -5 57 18 2 32 -1 77 -8 117 -5 34 -29 43 -53 20z">
</path>
<path id="pTkqrFvSd" d="M4620 5048 c-23 -38 -24 -44 -10 -53 22 -14 10 -35 -21 -35 -31 0 -31 -1 -24 -37 4 -20 13 -46 21 -57 8 -11 14 -28 14 -38 0 -24 3 -23 55 17 52 39 95 50 167 42 l50 -6 -4 49 c-6 60 -21 78 -97 119 -80 42 -125 42 -151 -1z">
</path>
<path id="pHOiSCAPp" d="M6355 5075 c-5 -2 -22 -6 -37 -9 -16 -4 -28 -10 -28 -16 0 -12 23 -18 108 -26 l74 -7 -4 29 c-3 27 -6 29 -53 31 -27 1 -54 0 -60 -2z">
</path>
<path id="p1H7TCtubk" d="M5184 5037 c-65 -25 -144 -98 -144 -134 0 -5 48 14 106 43 58 29 126 56 152 60 46 7 66 20 56 36 -8 12 -135 8 -170 -5z">
</path>
<path id="p1HOTKBpbv" d="M6303 4994 c-8 -21 1 -27 76 -54 64 -22 136 -62 199 -108 68 -52 52 8 -24 83 -55 56 -98 75 -202 89 -33 5 -44 3 -49 -10z">
</path>
<path id="p12SbHbPO7" d="M4953 4983 c-40 -3 -53 -8 -53 -20 0 -29 24 -95 36 -100 15 -6 54 14 54 28 0 5 11 26 25 46 24 36 25 55 2 51 -7 -1 -36 -3 -64 -5z">
</path>
<path id="pPNzoxIkC" d="M5255 4957 c-39 -13 -102 -42 -141 -65 -39 -22 -89 -47 -112 -54 -23 -7 -42 -18 -42 -25 0 -18 84 -83 107 -83 26 0 82 45 132 105 44 53 90 87 144 104 21 7 36 18 34 24 -6 20 -49 18 -122 -6z">
</path>
<path id="p7d5uO9Ip" d="M6905 4952 c-90 -39 -102 -49 -114 -96 -19 -75 -19 -75 53 -74 52 0 74 -5 116 -28 29 -15 60 -39 70 -52 l19 -24 15 35 c7 19 19 38 25 41 6 4 11 17 11 29 0 13 7 33 16 45 13 20 14 28 3 53 -28 69 -137 105 -214 71z">
</path>
<path id="pQjoR8qvw" d="M6287 4928 c-24 -13 -14 -24 53 -58 45 -23 68 -43 103 -93 56 -78 110 -127 141 -127 22 0 97 47 110 69 4 6 -17 22 -46 37 -29 14 -73 41 -98 58 -113 80 -232 132 -263 114z">
</path>
<path id="pIg33blFZ" d="M5319 4891 c-42 -21 -201 -181 -195 -196 6 -17 71 -34 90 -23 9 5 30 35 46 67 26 52 109 141 131 141 5 0 9 7 9 15 0 20 -36 19 -81 -4z">
</path>
<path id="pokB0YrZe" d="M6640 4873 c0 -20 36 -84 54 -95 19 -13 26 -9 37 20 7 15 16 37 22 50 15 31 -3 42 -65 42 -39 0 -48 -3 -48 -17z">
</path>
<path id="pKxpqAkDk" d="M6251 4853 c0 -10 19 -32 42 -48 30 -22 52 -51 78 -103 20 -40 45 -82 56 -94 19 -18 25 -19 57 -8 20 6 38 16 42 21 3 6 -16 33 -43 62 -27 29 -62 71 -77 93 -26 40 -106 94 -140 94 -9 0 -16 -8 -15 -17z">
</path>
<path id="pM75j8mVH" d="M4726 4845 c-22 -8 -51 -25 -64 -39 -28 -27 -26 -35 16 -96 25 -37 94 -110 104 -110 4 0 8 9 8 20 0 11 13 34 28 51 25 28 37 33 88 36 90 7 91 8 45 59 -23 26 -41 51 -41 55 0 10 -95 39 -124 39 -12 -1 -39 -7 -60 -15z">
</path>
<path id="pRARE8rkq" d="M5361 4814 c-47 -42 -117 -162 -103 -176 6 -6 25 -11 43 -11 32 -2 33 0 55 61 12 36 36 78 54 97 20 21 30 40 27 49 -10 25 -34 19 -76 -20z">
</path>
<path id="pvVsiKkbP" d="M6203 4794 c-3 -9 7 -28 27 -49 22 -23 38 -55 51 -101 10 -37 23 -72 28 -77 5 -5 26 -4 49 3 l41 10 -23 48 c-41 88 -56 111 -93 147 -38 37 -70 45 -80 19z">
</path>
<path id="ptcekqQlC" d="M6780 4743 c-27 -5 -135 -108 -122 -117 5 -3 37 -10 73 -15 52 -8 69 -16 92 -41 15 -17 27 -40 27 -53 1 -51 16 -51 69 3 28 28 51 57 51 64 0 8 7 19 16 26 31 27 35 46 12 75 -41 52 -127 75 -218 58z">
</path>
<path id="pp571JInB" d="M4904 4673 c-43 -4 -67 -22 -78 -60 -5 -16 0 -26 24 -43 16 -12 30 -27 30 -35 0 -7 12 -15 28 -17 15 -3 35 -9 44 -13 13 -5 31 6 70 45 28 28 64 58 80 66 37 19 35 27 -7 47 -34 16 -88 19 -191 10z">
</path>
<path id="p1Elyl3KeW" d="M5134 4591 c-57 -27 -119 -85 -108 -103 3 -4 19 -8 36 -8 17 0 39 -6 47 -14 9 -7 37 -16 64 -19 41 -4 47 -2 47 15 0 29 26 73 54 92 15 9 26 20 26 25 0 8 -84 42 -99 41 -3 -1 -33 -14 -67 -29z">
</path>
<path id="p1ERphZYIW" d="M6532 4589 c-18 -6 -32 -14 -30 -18 2 -5 23 -24 48 -43 24 -18 56 -51 71 -73 15 -21 35 -42 45 -45 30 -11 88 7 109 34 12 15 26 26 32 26 21 0 24 18 9 54 -18 43 -33 51 -123 65 -84 13 -116 13 -161 0z">
</path>
<path id="p18n9k7dJE" d="M6358 4543 c-25 -6 -22 -20 12 -59 16 -19 32 -47 36 -62 11 -54 10 -53 69 -47 31 2 65 10 76 15 11 6 27 10 37 8 17 -3 22 3 22 21 0 18 -55 75 -99 103 -44 27 -100 35 -153 21z">
</path>
</g>
</g>
</svg>